<svg width="31" height="31" viewBox="0 0 31 31" fill="none" xmlns="http://www.w3.org/2000/svg">
<path d="M9.45898 21.4957L14.9752 21.477L27.0152 9.55199C27.4877 9.07949 27.7477 8.45199 27.7477 7.78449C27.7477 7.11699 27.4877 6.48949 27.0152 6.01699L25.0327 4.03449C24.0877 3.08949 22.439 3.09449 21.5015 4.03074L9.45898 15.9582V21.4957ZM23.2652 5.80199L25.2515 7.78074L23.2552 9.75824L21.2727 7.77699L23.2652 5.80199ZM11.959 17.0007L19.4965 9.53449L21.479 11.517L13.9427 18.9807L11.959 18.987V17.0007Z" fill="#2F80ED"/>
<path d="M6.95898 26.4795H24.459C25.8377 26.4795 26.959 25.3582 26.959 23.9795V13.1445L24.459 15.6445V23.9795H10.9065C10.874 23.9795 10.8402 23.992 10.8077 23.992C10.7665 23.992 10.7252 23.9807 10.6827 23.9795H6.95898V6.47949H15.5177L18.0177 3.97949H6.95898C5.58023 3.97949 4.45898 5.10074 4.45898 6.47949V23.9795C4.45898 25.3582 5.58023 26.4795 6.95898 26.4795Z" fill="#2F80ED"/>
</svg>
