<svg width="15" height="14" viewBox="0 0 15 14" fill="none" xmlns="http://www.w3.org/2000/svg">
<mask id="path-1-inside-1_472_8397" fill="white">
<path fill-rule="evenodd" clip-rule="evenodd" d="M7.17173 1.09093C7.17173 0.906751 7.24489 0.730116 7.37513 0.599883C7.50536 0.469649 7.68199 0.396484 7.86617 0.396484H13.4217C13.6059 0.396484 13.7825 0.469649 13.9128 0.599883C14.043 0.730116 14.1162 0.906751 14.1162 1.09093C14.1162 1.27511 14.043 1.45174 13.9128 1.58198C13.7825 1.71221 13.6059 1.78537 13.4217 1.78537H7.86617C7.68199 1.78537 7.50536 1.71221 7.37513 1.58198C7.24489 1.45174 7.17173 1.27511 7.17173 1.09093ZM7.17173 3.86871C7.17173 3.68453 7.24489 3.50789 7.37513 3.37766C7.50536 3.24743 7.68199 3.17426 7.86617 3.17426H13.4217C13.6059 3.17426 13.7825 3.24743 13.9128 3.37766C14.043 3.50789 14.1162 3.68453 14.1162 3.86871C14.1162 4.05288 14.043 4.22952 13.9128 4.35975C13.7825 4.48999 13.6059 4.56315 13.4217 4.56315H7.86617C7.68199 4.56315 7.50536 4.48999 7.37513 4.35975C7.24489 4.22952 7.17173 4.05288 7.17173 3.86871ZM7.17173 10.1187C7.17173 9.93453 7.24489 9.75789 7.37513 9.62766C7.50536 9.49743 7.68199 9.42426 7.86617 9.42426H13.4217C13.6059 9.42426 13.7825 9.49743 13.9128 9.62766C14.043 9.75789 14.1162 9.93453 14.1162 10.1187C14.1162 10.3029 14.043 10.4795 13.9128 10.6098C13.7825 10.74 13.6059 10.8132 13.4217 10.8132H7.86617C7.68199 10.8132 7.50536 10.74 7.37513 10.6098C7.24489 10.4795 7.17173 10.3029 7.17173 10.1187ZM7.17173 12.8965C7.17173 12.7123 7.24489 12.5357 7.37513 12.4054C7.50536 12.2752 7.68199 12.202 7.86617 12.202H13.4217C13.6059 12.202 13.7825 12.2752 13.9128 12.4054C14.043 12.5357 14.1162 12.7123 14.1162 12.8965C14.1162 13.0807 14.043 13.2573 13.9128 13.3875C13.7825 13.5178 13.6059 13.5909 13.4217 13.5909H7.86617C7.68199 13.5909 7.50536 13.5178 7.37513 13.3875C7.24489 13.2573 7.17173 13.0807 7.17173 12.8965ZM1.61617 10.1187V12.202H3.69951V10.1187H1.61617ZM0.921728 8.72982H4.39395C4.57813 8.72982 4.75476 8.80298 4.885 8.93322C5.01523 9.06345 5.08839 9.24008 5.08839 9.42426V12.8965C5.08839 13.0807 5.01523 13.2573 4.885 13.3875C4.75476 13.5178 4.57813 13.5909 4.39395 13.5909H0.921728C0.73755 13.5909 0.560916 13.5178 0.430682 13.3875C0.300448 13.2573 0.227284 13.0807 0.227284 12.8965V9.42426C0.227284 9.24008 0.300448 9.06345 0.430682 8.93322C0.560916 8.80298 0.73755 8.72982 0.921728 8.72982ZM5.57937 0.599957C5.70956 0.730184 5.78269 0.906787 5.78269 1.09093C5.78269 1.27507 5.70956 1.45167 5.57937 1.5819L2.31062 4.85065L0.430756 2.97079C0.36443 2.90673 0.311525 2.8301 0.27513 2.74538C0.238735 2.66065 0.219577 2.56953 0.218776 2.47732C0.217975 2.38511 0.235546 2.29367 0.270463 2.20832C0.305381 2.12298 0.356945 2.04544 0.422149 1.98024C0.487352 1.91503 0.564888 1.86347 0.650232 1.82855C0.735577 1.79364 0.827021 1.77606 0.919229 1.77687C1.01144 1.77767 1.10256 1.79682 1.18729 1.83322C1.27201 1.86962 1.34864 1.92252 1.4127 1.98885L2.31062 2.88676L4.59742 0.599957C4.72765 0.469769 4.90425 0.396633 5.08839 0.396633C5.27254 0.396633 5.44914 0.469769 5.57937 0.599957Z"/>
</mask>
<path fill-rule="evenodd" clip-rule="evenodd" d="M7.17173 1.09093C7.17173 0.906751 7.24489 0.730116 7.37513 0.599883C7.50536 0.469649 7.68199 0.396484 7.86617 0.396484H13.4217C13.6059 0.396484 13.7825 0.469649 13.9128 0.599883C14.043 0.730116 14.1162 0.906751 14.1162 1.09093C14.1162 1.27511 14.043 1.45174 13.9128 1.58198C13.7825 1.71221 13.6059 1.78537 13.4217 1.78537H7.86617C7.68199 1.78537 7.50536 1.71221 7.37513 1.58198C7.24489 1.45174 7.17173 1.27511 7.17173 1.09093ZM7.17173 3.86871C7.17173 3.68453 7.24489 3.50789 7.37513 3.37766C7.50536 3.24743 7.68199 3.17426 7.86617 3.17426H13.4217C13.6059 3.17426 13.7825 3.24743 13.9128 3.37766C14.043 3.50789 14.1162 3.68453 14.1162 3.86871C14.1162 4.05288 14.043 4.22952 13.9128 4.35975C13.7825 4.48999 13.6059 4.56315 13.4217 4.56315H7.86617C7.68199 4.56315 7.50536 4.48999 7.37513 4.35975C7.24489 4.22952 7.17173 4.05288 7.17173 3.86871ZM7.17173 10.1187C7.17173 9.93453 7.24489 9.75789 7.37513 9.62766C7.50536 9.49743 7.68199 9.42426 7.86617 9.42426H13.4217C13.6059 9.42426 13.7825 9.49743 13.9128 9.62766C14.043 9.75789 14.1162 9.93453 14.1162 10.1187C14.1162 10.3029 14.043 10.4795 13.9128 10.6098C13.7825 10.74 13.6059 10.8132 13.4217 10.8132H7.86617C7.68199 10.8132 7.50536 10.74 7.37513 10.6098C7.24489 10.4795 7.17173 10.3029 7.17173 10.1187ZM7.17173 12.8965C7.17173 12.7123 7.24489 12.5357 7.37513 12.4054C7.50536 12.2752 7.68199 12.202 7.86617 12.202H13.4217C13.6059 12.202 13.7825 12.2752 13.9128 12.4054C14.043 12.5357 14.1162 12.7123 14.1162 12.8965C14.1162 13.0807 14.043 13.2573 13.9128 13.3875C13.7825 13.5178 13.6059 13.5909 13.4217 13.5909H7.86617C7.68199 13.5909 7.50536 13.5178 7.37513 13.3875C7.24489 13.2573 7.17173 13.0807 7.17173 12.8965ZM1.61617 10.1187V12.202H3.69951V10.1187H1.61617ZM0.921728 8.72982H4.39395C4.57813 8.72982 4.75476 8.80298 4.885 8.93322C5.01523 9.06345 5.08839 9.24008 5.08839 9.42426V12.8965C5.08839 13.0807 5.01523 13.2573 4.885 13.3875C4.75476 13.5178 4.57813 13.5909 4.39395 13.5909H0.921728C0.73755 13.5909 0.560916 13.5178 0.430682 13.3875C0.300448 13.2573 0.227284 13.0807 0.227284 12.8965V9.42426C0.227284 9.24008 0.300448 9.06345 0.430682 8.93322C0.560916 8.80298 0.73755 8.72982 0.921728 8.72982ZM5.57937 0.599957C5.70956 0.730184 5.78269 0.906787 5.78269 1.09093C5.78269 1.27507 5.70956 1.45167 5.57937 1.5819L2.31062 4.85065L0.430756 2.97079C0.36443 2.90673 0.311525 2.8301 0.27513 2.74538C0.238735 2.66065 0.219577 2.56953 0.218776 2.47732C0.217975 2.38511 0.235546 2.29367 0.270463 2.20832C0.305381 2.12298 0.356945 2.04544 0.422149 1.98024C0.487352 1.91503 0.564888 1.86347 0.650232 1.82855C0.735577 1.79364 0.827021 1.77606 0.919229 1.77687C1.01144 1.77767 1.10256 1.79682 1.18729 1.83322C1.27201 1.86962 1.34864 1.92252 1.4127 1.98885L2.31062 2.88676L4.59742 0.599957C4.72765 0.469769 4.90425 0.396633 5.08839 0.396633C5.27254 0.396633 5.44914 0.469769 5.57937 0.599957Z" fill="white"/>
<path d="M1.61617 10.1187V7.11871H-1.38383V10.1187H1.61617ZM1.61617 12.202H-1.38383V15.202H1.61617V12.202ZM3.69951 12.202V15.202H6.69951V12.202H3.69951ZM3.69951 10.1187H6.69951V7.11871H3.69951V10.1187ZM5.57937 1.5819L7.70069 3.70322L7.70101 3.7029L5.57937 1.5819ZM2.31062 4.85065L0.189297 6.97197L2.31062 9.09329L4.43194 6.97197L2.31062 4.85065ZM0.430756 2.97079L2.55208 0.84947L2.53364 0.831036L2.51489 0.812926L0.430756 2.97079ZM1.4127 1.98885L-0.745164 4.07298L-0.727054 4.09173L-0.708621 4.11016L1.4127 1.98885ZM2.31062 2.88676L0.189296 5.00808L2.31062 7.1294L4.43194 5.00808L2.31062 2.88676ZM4.59742 0.599957L2.47642 -1.52168L2.4761 -1.52136L4.59742 0.599957ZM5.08839 0.396633V-2.60337V0.396633ZM10.1717 1.09093C10.1717 1.70239 9.92883 2.28882 9.49645 2.7212L5.25381 -1.52144C4.56096 -0.828591 4.17173 0.111107 4.17173 1.09093H10.1717ZM9.49645 2.7212C9.06407 3.15358 8.47764 3.39648 7.86617 3.39648V-2.60352C6.88635 -2.60352 5.94665 -2.21428 5.25381 -1.52144L9.49645 2.7212ZM7.86617 3.39648H13.4217V-2.60352H7.86617V3.39648ZM13.4217 3.39648C12.8103 3.39648 12.2238 3.15358 11.7915 2.7212L16.0341 -1.52144C15.3413 -2.21428 14.4016 -2.60352 13.4217 -2.60352V3.39648ZM11.7915 2.7212C11.3591 2.28882 11.1162 1.70239 11.1162 1.09093H17.1162C17.1162 0.111107 16.7269 -0.828591 16.0341 -1.52144L11.7915 2.7212ZM11.1162 1.09093C11.1162 0.479463 11.3591 -0.106966 11.7915 -0.539345L16.0341 3.7033C16.7269 3.01045 17.1162 2.07075 17.1162 1.09093H11.1162ZM11.7915 -0.539345C12.2238 -0.971721 12.8103 -1.21463 13.4217 -1.21463V4.78537C14.4016 4.78537 15.3413 4.39614 16.0341 3.7033L11.7915 -0.539345ZM13.4217 -1.21463H7.86617V4.78537H13.4217V-1.21463ZM7.86617 -1.21463C8.47764 -1.21463 9.06407 -0.971721 9.49645 -0.539345L5.25381 3.7033C5.94665 4.39614 6.88635 4.78537 7.86617 4.78537V-1.21463ZM9.49645 -0.539345C9.92883 -0.106966 10.1717 0.479463 10.1717 1.09093H4.17173C4.17173 2.07075 4.56096 3.01045 5.25381 3.7033L9.49645 -0.539345ZM10.1717 3.86871C10.1717 4.48017 9.92883 5.0666 9.49645 5.49898L5.25381 1.25634C4.56096 1.94919 4.17173 2.88889 4.17173 3.86871H10.1717ZM9.49645 5.49898C9.06406 5.93136 8.47764 6.17426 7.86617 6.17426V0.174262C6.88635 0.174262 5.94665 0.563491 5.25381 1.25634L9.49645 5.49898ZM7.86617 6.17426H13.4217V0.174262H7.86617V6.17426ZM13.4217 6.17426C12.8103 6.17426 12.2238 5.93136 11.7915 5.49898L16.0341 1.25634C15.3412 0.563491 14.4015 0.174262 13.4217 0.174262V6.17426ZM11.7915 5.49898C11.3591 5.0666 11.1162 4.48017 11.1162 3.86871H17.1162C17.1162 2.88889 16.7269 1.94919 16.0341 1.25634L11.7915 5.49898ZM11.1162 3.86871C11.1162 3.25724 11.3591 2.67081 11.7915 2.23843L16.0341 6.48107C16.7269 5.78823 17.1162 4.84853 17.1162 3.86871H11.1162ZM11.7915 2.23843C12.2238 1.80605 12.8103 1.56315 13.4217 1.56315V7.56315C14.4015 7.56315 15.3412 7.17392 16.0341 6.48107L11.7915 2.23843ZM13.4217 1.56315H7.86617V7.56315H13.4217V1.56315ZM7.86617 1.56315C8.47764 1.56315 9.06406 1.80605 9.49645 2.23843L5.25381 6.48107C5.94665 7.17392 6.88635 7.56315 7.86617 7.56315V1.56315ZM9.49645 2.23843C9.92883 2.67081 10.1717 3.25724 10.1717 3.86871H4.17173C4.17173 4.84853 4.56096 5.78823 5.25381 6.48107L9.49645 2.23843ZM10.1717 10.1187C10.1717 10.7302 9.92883 11.3166 9.49645 11.749L5.25381 7.50634C4.56096 8.19919 4.17173 9.13889 4.17173 10.1187H10.1717ZM9.49645 11.749C9.06406 12.1814 8.47764 12.4243 7.86617 12.4243V6.42426C6.88635 6.42426 5.94665 6.81349 5.25381 7.50634L9.49645 11.749ZM7.86617 12.4243H13.4217V6.42426H7.86617V12.4243ZM13.4217 12.4243C12.8103 12.4243 12.2238 12.1814 11.7915 11.749L16.0341 7.50634C15.3412 6.81349 14.4015 6.42426 13.4217 6.42426V12.4243ZM11.7915 11.749C11.3591 11.3166 11.1162 10.7302 11.1162 10.1187H17.1162C17.1162 9.13889 16.7269 8.19919 16.0341 7.50634L11.7915 11.749ZM11.1162 10.1187C11.1162 9.50724 11.3591 8.92082 11.7915 8.48843L16.0341 12.7311C16.7269 12.0382 17.1162 11.0985 17.1162 10.1187H11.1162ZM11.7915 8.48843C12.2238 8.05605 12.8103 7.81315 13.4217 7.81315V13.8132C14.4015 13.8132 15.3412 13.4239 16.0341 12.7311L11.7915 8.48843ZM13.4217 7.81315H7.86617V13.8132H13.4217V7.81315ZM7.86617 7.81315C8.47764 7.81315 9.06406 8.05605 9.49645 8.48843L5.25381 12.7311C5.94665 13.4239 6.88635 13.8132 7.86617 13.8132V7.81315ZM9.49645 8.48843C9.92883 8.92082 10.1717 9.50724 10.1717 10.1187H4.17173C4.17173 11.0985 4.56096 12.0382 5.25381 12.7311L9.49645 8.48843ZM10.1717 12.8965C10.1717 13.5079 9.92883 14.0944 9.49645 14.5268L5.25381 10.2841C4.56096 10.977 4.17173 11.9167 4.17173 12.8965H10.1717ZM9.49645 14.5268C9.06406 14.9591 8.47764 15.202 7.86617 15.202V9.20204C6.88635 9.20204 5.94665 9.59127 5.25381 10.2841L9.49645 14.5268ZM7.86617 15.202H13.4217V9.20204H7.86617V15.202ZM13.4217 15.202C12.8103 15.202 12.2238 14.9591 11.7915 14.5268L16.0341 10.2841C15.3412 9.59127 14.4015 9.20204 13.4217 9.20204V15.202ZM11.7915 14.5268C11.3591 14.0944 11.1162 13.5079 11.1162 12.8965H17.1162C17.1162 11.9167 16.7269 10.977 16.0341 10.2841L11.7915 14.5268ZM11.1162 12.8965C11.1162 12.285 11.3591 11.6986 11.7915 11.2662L16.0341 15.5089C16.7269 14.816 17.1162 13.8763 17.1162 12.8965H11.1162ZM11.7915 11.2662C12.2238 10.8338 12.8103 10.5909 13.4217 10.5909V16.5909C14.4015 16.5909 15.3412 16.2017 16.0341 15.5089L11.7915 11.2662ZM13.4217 10.5909H7.86617V16.5909H13.4217V10.5909ZM7.86617 10.5909C8.47764 10.5909 9.06406 10.8338 9.49645 11.2662L5.25381 15.5089C5.94665 16.2017 6.88635 16.5909 7.86617 16.5909V10.5909ZM9.49645 11.2662C9.92883 11.6986 10.1717 12.285 10.1717 12.8965H4.17173C4.17173 13.8763 4.56096 14.816 5.25381 15.5089L9.49645 11.2662ZM-1.38383 10.1187V12.202H4.61617V10.1187H-1.38383ZM1.61617 15.202H3.69951V9.20204H1.61617V15.202ZM6.69951 12.202V10.1187H0.699506V12.202H6.69951ZM3.69951 7.11871H1.61617V13.1187H3.69951V7.11871ZM0.921728 11.7298H4.39395V5.72982H0.921728V11.7298ZM4.39395 11.7298C3.78249 11.7298 3.19606 11.4869 2.76368 11.0545L7.00632 6.8119C6.31347 6.11905 5.37377 5.72982 4.39395 5.72982V11.7298ZM2.76368 11.0545C2.3313 10.6222 2.08839 10.0357 2.08839 9.42426H8.08839C8.08839 8.44444 7.69917 7.50474 7.00632 6.8119L2.76368 11.0545ZM2.08839 9.42426V12.8965H8.08839V9.42426H2.08839ZM2.08839 12.8965C2.08839 12.285 2.3313 11.6986 2.76368 11.2662L7.00632 15.5089C7.69917 14.816 8.08839 13.8763 8.08839 12.8965H2.08839ZM2.76368 11.2662C3.19606 10.8338 3.78249 10.5909 4.39395 10.5909V16.5909C5.37377 16.5909 6.31347 16.2017 7.00632 15.5089L2.76368 11.2662ZM4.39395 10.5909H0.921728V16.5909H4.39395V10.5909ZM0.921728 10.5909C1.53319 10.5909 2.11962 10.8338 2.552 11.2662L-1.69064 15.5089C-0.997792 16.2017 -0.0580941 16.5909 0.921728 16.5909V10.5909ZM2.552 11.2662C2.98438 11.6986 3.22728 12.285 3.22728 12.8965H-2.77272C-2.77272 13.8763 -2.38348 14.816 -1.69064 15.5089L2.552 11.2662ZM3.22728 12.8965V9.42426H-2.77272V12.8965H3.22728ZM3.22728 9.42426C3.22728 10.0357 2.98438 10.6222 2.552 11.0545L-1.69064 6.8119C-2.38348 7.50474 -2.77272 8.44444 -2.77272 9.42426H3.22728ZM2.552 11.0545C2.11962 11.4869 1.53319 11.7298 0.921728 11.7298V5.72982C-0.0580941 5.72982 -0.997792 6.11905 -1.69064 6.8119L2.552 11.0545ZM3.45773 2.72096C3.0255 2.2886 2.78269 1.70228 2.78269 1.09093H8.78269C8.78269 0.111297 8.39361 -0.828231 7.70101 -1.52104L3.45773 2.72096ZM2.78269 1.09093C2.78269 0.47958 3.0255 -0.106742 3.45773 -0.539099L7.70101 3.7029C8.39361 3.01009 8.78269 2.07056 8.78269 1.09093H2.78269ZM3.45805 -0.53942L0.189297 2.72933L4.43194 6.97197L7.70069 3.70322L3.45805 -0.53942ZM4.43194 2.72933L2.55208 0.84947L-1.69056 5.09211L0.189297 6.97197L4.43194 2.72933ZM2.51489 0.812926C2.7351 1.02561 2.91074 1.28001 3.03157 1.5613L-2.48131 3.92945C-2.28769 4.38019 -2.00624 4.78785 -1.65338 5.12865L2.51489 0.812926ZM3.03157 1.5613C3.1524 1.84259 3.216 2.14512 3.21866 2.45125L-2.78111 2.50339C-2.77685 2.99393 -2.67493 3.47872 -2.48131 3.92945L3.03157 1.5613ZM3.21866 2.45125C3.22132 2.7574 3.16298 3.06099 3.04706 3.34432L-2.50614 1.07233C-2.69189 1.52635 -2.78537 2.01283 -2.78111 2.50339L3.21866 2.45125ZM3.04706 3.34432C2.93114 3.62766 2.75995 3.88508 2.54347 4.10156L-1.69917 -0.141082C-2.04606 0.205803 -2.32038 0.618296 -2.50614 1.07233L3.04706 3.34432ZM2.54347 4.10156C2.32701 4.31802 2.06959 4.48922 1.78623 4.60515L-0.485765 -0.948048C-0.939813 -0.762282 -1.3523 -0.487953 -1.69917 -0.141082L2.54347 4.10156ZM1.78623 4.60515C1.50288 4.72108 1.19929 4.77941 0.893161 4.77675L0.945297 -1.22302C0.454754 -1.22728 -0.0317292 -1.13381 -0.485765 -0.948048L1.78623 4.60515ZM0.893161 4.77675C0.587016 4.77409 0.284482 4.71049 0.0032087 4.58966L2.37136 -0.92322C1.92064 -1.11684 1.43586 -1.21876 0.945297 -1.22302L0.893161 4.77675ZM0.0032087 4.58966C-0.278064 4.46883 -0.532473 4.2932 -0.745164 4.07298L3.57056 -0.0952902C3.22975 -0.448159 2.82209 -0.729604 2.37136 -0.92322L0.0032087 4.58966ZM-0.708621 4.11016L0.189296 5.00808L4.43194 0.765443L3.53402 -0.132474L-0.708621 4.11016ZM4.43194 5.00808L6.71874 2.72128L2.4761 -1.52136L0.189296 0.765443L4.43194 5.00808ZM6.71842 2.7216C6.28607 3.15382 5.69974 3.39663 5.08839 3.39663V-2.60337C4.10876 -2.60337 3.16923 -2.21429 2.47642 -1.52168L6.71842 2.7216ZM5.08839 3.39663C4.47705 3.39663 3.89072 3.15382 3.45837 2.7216L7.70037 -1.52168C7.00756 -2.21429 6.06803 -2.60337 5.08839 -2.60337V3.39663Z" fill="white" mask="url(#path-1-inside-1_472_8397)"/>
</svg>
