<svg width="31" height="31" viewBox="0 0 31 31" fill="none" xmlns="http://www.w3.org/2000/svg">
<path d="M10.9805 5.65625H10.7461C10.875 5.65625 10.9805 5.55078 10.9805 5.42188V5.65625H19.8867V5.42188C19.8867 5.55078 19.9922 5.65625 20.1211 5.65625H19.8867V7.76562H21.9961V5.42188C21.9961 4.3877 21.1553 3.54688 20.1211 3.54688H10.7461C9.71191 3.54688 8.87109 4.3877 8.87109 5.42188V7.76562H10.9805V5.65625ZM25.7461 7.76562H5.12109C4.60254 7.76562 4.18359 8.18457 4.18359 8.70312V9.64062C4.18359 9.76953 4.28906 9.875 4.41797 9.875H6.1875L6.91113 25.1973C6.95801 26.1963 7.78418 26.9844 8.7832 26.9844H22.084C23.0859 26.9844 23.9092 26.1992 23.9561 25.1973L24.6797 9.875H26.4492C26.5781 9.875 26.6836 9.76953 26.6836 9.64062V8.70312C26.6836 8.18457 26.2646 7.76562 25.7461 7.76562ZM21.8584 24.875H9.00879L8.2998 9.875H22.5674L21.8584 24.875Z" fill="#EB5757"/>
</svg>
