<svg width="33" height="33" viewBox="0 0 33 33" fill="none" xmlns="http://www.w3.org/2000/svg">
<rect x="1.375" y="1.04688" width="31" height="31" stroke="white"/>
<g clip-path="url(#clip0_212_10942)">
<path d="M16.752 12.5042C14.5045 12.5042 12.6917 14.3077 12.6917 16.5436C12.6917 18.7796 14.5045 20.5831 16.752 20.5831C18.9996 20.5831 20.8124 18.7796 20.8124 16.5436C20.8124 14.3077 18.9996 12.5042 16.752 12.5042ZM16.752 19.1698C15.2996 19.1698 14.1123 17.9921 14.1123 16.5436C14.1123 15.0952 15.2961 13.9175 16.752 13.9175C18.208 13.9175 19.3918 15.0952 19.3918 16.5436C19.3918 17.9921 18.2045 19.1698 16.752 19.1698ZM21.9256 12.339C21.9256 12.8628 21.5015 13.2812 20.9785 13.2812C20.452 13.2812 20.0314 12.8593 20.0314 12.339C20.0314 11.8187 20.4555 11.3968 20.9785 11.3968C21.5015 11.3968 21.9256 11.8187 21.9256 12.339ZM24.6148 13.2952C24.5547 12.0331 24.265 10.9151 23.3356 9.99404C22.4097 9.07295 21.286 8.78467 20.0173 8.72139C18.7098 8.64756 14.7908 8.64756 13.4833 8.72139C12.2181 8.78115 11.0944 9.06943 10.165 9.99053C9.23559 10.9116 8.94934 12.0296 8.88574 13.2917C8.81153 14.5925 8.81153 18.4913 8.88574 19.7921C8.94581 21.0542 9.23559 22.1722 10.165 23.0933C11.0944 24.0143 12.2146 24.3026 13.4833 24.3659C14.7908 24.4397 18.7098 24.4397 20.0173 24.3659C21.286 24.3061 22.4097 24.0179 23.3356 23.0933C24.2614 22.1722 24.5512 21.0542 24.6148 19.7921C24.689 18.4913 24.689 14.596 24.6148 13.2952ZM22.9257 21.1878C22.65 21.8768 22.1164 22.4077 21.4202 22.6854C20.3778 23.0968 17.9041 23.0018 16.752 23.0018C15.6 23.0018 13.1228 23.0933 12.0839 22.6854C11.3912 22.4112 10.8576 21.8804 10.5784 21.1878C10.165 20.1507 10.2604 17.6897 10.2604 16.5436C10.2604 15.3976 10.1685 12.9331 10.5784 11.8995C10.8541 11.2104 11.3877 10.6796 12.0839 10.4019C13.1263 9.99053 15.6 10.0854 16.752 10.0854C17.9041 10.0854 20.3813 9.99404 21.4202 10.4019C22.1129 10.6761 22.6465 11.2069 22.9257 11.8995C23.3391 12.9366 23.2437 15.3976 23.2437 16.5436C23.2437 17.6897 23.3391 20.1542 22.9257 21.1878Z" fill="white"/>
</g>
<defs>
<clipPath id="clip0_212_10942">
<rect width="16" height="18" fill="white" transform="translate(8.875 7.54688)"/>
</clipPath>
</defs>
</svg>
