<svg width="33" height="33" viewBox="0 0 33 33" fill="none" xmlns="http://www.w3.org/2000/svg">
<rect x="1.375" y="1.04688" width="31" height="31" stroke="white"/>
<g clip-path="url(#clip0_212_10937)">
<path d="M12.4275 23.5469V13.4264H9.03326V23.5469H12.4275ZM10.7308 12.0438C11.9144 12.0438 12.6512 11.2667 12.6512 10.2955C12.6291 9.30244 11.9145 8.54688 10.7533 8.54688C9.59224 8.54688 8.83301 9.30245 8.83301 10.2955C8.83301 11.2667 9.56957 12.0438 10.7086 12.0438H10.7307H10.7308ZM14.3061 23.5469H17.7003V17.8951C17.7003 17.5926 17.7224 17.2905 17.812 17.0743C18.0574 16.4699 18.6159 15.844 19.5535 15.844C20.7817 15.844 21.2731 16.7721 21.2731 18.1326V23.5468H24.667V17.7438C24.667 14.6352 22.9925 13.1888 20.7593 13.1888C18.9283 13.1888 18.1244 14.2031 17.6777 14.894H17.7004V13.4262H14.3062C14.3508 14.3758 14.3062 23.5467 14.3062 23.5467L14.3061 23.5469Z" fill="white"/>
</g>
<defs>
<clipPath id="clip0_212_10937">
<rect width="16" height="15" fill="white" transform="translate(8.875 8.54688)"/>
</clipPath>
</defs>
</svg>
