<svg width="33" height="33" viewBox="0 0 33 33" fill="none" xmlns="http://www.w3.org/2000/svg">
<rect x="1.375" y="1.04688" width="31" height="31" stroke="white"/>
<g clip-path="url(#clip0_212_10932)">
<path d="M25.6543 11.2513C24.9873 11.5358 24.2799 11.7225 23.5556 11.8053C24.3101 11.3698 24.8894 10.6804 25.1622 9.85885C24.4449 10.2687 23.6602 10.5574 22.8419 10.7126C22.1753 10.0289 21.2257 9.60156 20.1747 9.60156C18.1567 9.60156 16.5205 11.1768 16.5205 13.1196C16.5205 13.3954 16.5529 13.6639 16.6152 13.9215C13.5783 13.7747 10.8859 12.3741 9.0836 10.2456C8.76913 10.7652 8.58894 11.3696 8.58894 12.0143C8.58894 13.2349 9.23408 14.3117 10.2145 14.9426C9.63423 14.9251 9.06673 14.7742 8.55937 14.5025C8.55916 14.5172 8.55916 14.532 8.55916 14.5468C8.55916 16.2514 9.8187 17.6733 11.4902 17.9965C10.9522 18.1374 10.3878 18.1581 9.84013 18.0568C10.3051 19.4545 11.6546 20.4717 13.2535 20.5001C12.0029 21.4437 10.4273 22.0062 8.71542 22.0062C8.42044 22.0062 8.12962 21.9895 7.84375 21.957C9.46082 22.9552 11.3815 23.5377 13.445 23.5377C20.1662 23.5377 23.8415 18.1767 23.8415 13.5277C23.8415 13.3751 23.838 13.2233 23.8309 13.0725C24.5463 12.5746 25.1637 11.9579 25.6543 11.2513Z" fill="white"/>
</g>
<defs>
<clipPath id="clip0_212_10932">
<rect width="18" height="14" fill="white" transform="translate(7.875 9.54688)"/>
</clipPath>
</defs>
</svg>
