<svg width="31" height="31" viewBox="0 0 31 31" fill="none" xmlns="http://www.w3.org/2000/svg">
<path d="M11.0029 21.8896L15.5029 17.3896L20.0029 21.8896L21.7529 20.1396L17.2529 15.6396L21.7529 11.1396L20.0029 9.38965L15.5029 13.8896L11.0029 9.38965L9.25293 11.1396L13.7529 15.6396L9.25293 20.1396L11.0029 21.8896ZM15.5029 28.1396C13.7738 28.1396 12.1488 27.8113 10.6279 27.1546C9.1071 26.4988 7.78418 25.6084 6.65918 24.4834C5.53418 23.3584 4.64376 22.0355 3.98793 20.5146C3.33126 18.9938 3.00293 17.3688 3.00293 15.6396C3.00293 13.9105 3.33126 12.2855 3.98793 10.7646C4.64376 9.24382 5.53418 7.9209 6.65918 6.7959C7.78418 5.6709 9.1071 4.78007 10.6279 4.1234C12.1488 3.46757 13.7738 3.13965 15.5029 3.13965C17.2321 3.13965 18.8571 3.46757 20.3779 4.1234C21.8988 4.78007 23.2217 5.6709 24.3467 6.7959C25.4717 7.9209 26.3621 9.24382 27.0179 10.7646C27.6746 12.2855 28.0029 13.9105 28.0029 15.6396C28.0029 17.3688 27.6746 18.9938 27.0179 20.5146C26.3621 22.0355 25.4717 23.3584 24.3467 24.4834C23.2217 25.6084 21.8988 26.4988 20.3779 27.1546C18.8571 27.8113 17.2321 28.1396 15.5029 28.1396ZM15.5029 25.6396C18.2946 25.6396 20.6592 24.6709 22.5967 22.7334C24.5342 20.7959 25.5029 18.4313 25.5029 15.6396C25.5029 12.848 24.5342 10.4834 22.5967 8.5459C20.6592 6.6084 18.2946 5.63965 15.5029 5.63965C12.7113 5.63965 10.3467 6.6084 8.40918 8.5459C6.47168 10.4834 5.50293 12.848 5.50293 15.6396C5.50293 18.4313 6.47168 20.7959 8.40918 22.7334C10.3467 24.6709 12.7113 25.6396 15.5029 25.6396Z" fill="#EB5757"/>
</svg>
