<svg width="31" height="31" viewBox="0 0 31 31" fill="none" xmlns="http://www.w3.org/2000/svg">
<rect width="30" height="30" transform="translate(0.50293 0.639648)" fill="white"/>
<path d="M16.1025 3.13965C9.22754 3.13965 3.60254 8.76465 3.60254 15.6396C3.60254 22.5147 9.22754 28.1397 16.1025 28.1397C22.9775 28.1397 28.6025 22.5147 28.6025 15.6396C28.6025 8.76465 22.9775 3.13965 16.1025 3.13965ZM16.1025 25.6397C10.59 25.6397 6.10254 21.1521 6.10254 15.6396C6.10254 10.1271 10.59 5.63965 16.1025 5.63965C21.615 5.63965 26.1025 10.1271 26.1025 15.6396C26.1025 21.1521 21.615 25.6397 16.1025 25.6397ZM21.84 10.1146L13.6025 18.3521L10.365 15.1271L8.60254 16.8896L13.6025 21.8897L23.6025 11.8896L21.84 10.1146Z" fill="#72FD77"/>
</svg>
